<svg width="30" height="22" viewBox="0 0 30 22" fill="none" xmlns="http://www.w3.org/2000/svg">
<path d="M10.9608 20.8951L10.9527 20.8916L10.927 20.8776C10.7768 20.795 10.6279 20.7102 10.4802 20.6232C8.70428 19.568 7.04465 18.3284 5.52883 16.9249C2.84433 14.4201 0 10.7031 0 6.12508C0 2.70908 2.87467 8.27764e-05 6.34433 8.27764e-05C7.30888 -0.00464155 8.26208 0.208147 9.13304 0.622622C10.004 1.0371 10.7703 1.6426 11.375 2.39408C11.9798 1.64244 12.7463 1.03685 13.6175 0.622368C14.4887 0.207886 15.4421 -0.00481723 16.4068 8.27764e-05C19.8753 8.27764e-05 22.75 2.70908 22.75 6.12508C22.75 10.7042 19.9057 14.4212 17.2212 16.9237C15.7054 18.3272 14.0457 19.5669 12.2698 20.6221C12.1221 20.7094 11.9732 20.7946 11.823 20.8776L11.7973 20.8916L11.7892 20.8962L11.7857 20.8974C11.6592 20.9644 11.5182 20.9995 11.375 20.9995C11.2318 20.9995 11.0908 20.9644 10.9643 20.8974L10.9608 20.8951Z" fill="white"/>
<path d="M21.2683 18.9668L24.4583 12.7335H22.2583V8.70012L18.9583 14.9335H21.2683V18.9668ZM21.7083 21.1668C20.6939 21.1668 19.7406 20.9743 18.8483 20.5893C17.9561 20.2043 17.18 19.6818 16.52 19.0218C15.86 18.3618 15.3375 17.5857 14.9525 16.6935C14.5675 15.8012 14.375 14.8479 14.375 13.8335C14.375 12.819 14.5675 11.8657 14.9525 10.9735C15.3375 10.0812 15.86 9.30512 16.52 8.64512C17.18 7.98512 17.9561 7.46262 18.8483 7.07762C19.7406 6.69262 20.6939 6.50012 21.7083 6.50012C22.7228 6.50012 23.6761 6.69262 24.5683 7.07762C25.4606 7.46262 26.2367 7.98512 26.8967 8.64512C27.5567 9.30512 28.0792 10.0812 28.4642 10.9735C28.8492 11.8657 29.0417 12.819 29.0417 13.8335C29.0417 14.8479 28.8492 15.8012 28.4642 16.6935C28.0792 17.5857 27.5567 18.3618 26.8967 19.0218C26.2367 19.6818 25.4606 20.2043 24.5683 20.5893C23.6761 20.9743 22.7228 21.1668 21.7083 21.1668Z" fill="#894189"/>
<path d="M21.6417 18.5001L24.5417 12.8334H22.5417V9.16675L19.5417 14.8334H21.6417V18.5001ZM22.0417 20.5001C21.1194 20.5001 20.2528 20.3251 19.4417 19.9751C18.6306 19.6251 17.925 19.1501 17.325 18.5501C16.725 17.9501 16.25 17.2445 15.9 16.4334C15.55 15.6223 15.375 14.7556 15.375 13.8334C15.375 12.9112 15.55 12.0445 15.9 11.2334C16.25 10.4223 16.725 9.71675 17.325 9.11675C17.925 8.51675 18.6306 8.04175 19.4417 7.69175C20.2528 7.34175 21.1194 7.16675 22.0417 7.16675C22.9639 7.16675 23.8306 7.34175 24.6417 7.69175C25.4528 8.04175 26.1583 8.51675 26.7583 9.11675C27.3583 9.71675 27.8333 10.4223 28.1833 11.2334C28.5333 12.0445 28.7083 12.9112 28.7083 13.8334C28.7083 14.7556 28.5333 15.6223 28.1833 16.4334C27.8333 17.2445 27.3583 17.9501 26.7583 18.5501C26.1583 19.1501 25.4528 19.6251 24.6417 19.9751C23.8306 20.3251 22.9639 20.5001 22.0417 20.5001Z" fill="white"/>
</svg>
